<svg xmlns="http://www.w3.org/2000/svg" xmlns:xlink="http://www.w3.org/1999/xlink" viewBox="0 0 388.22 113.61"><defs><style>.cls-1,.cls-21{opacity:0.9;}.cls-2{fill:url(#linear-gradient);}.cls-3{fill:url(#linear-gradient-2);}.cls-4{fill:#80231f;}.cls-5{fill:#7e2221;}.cls-6{fill:#741f1e;}.cls-7{fill:#832321;}.cls-8{fill:#611d1a;}.cls-9{fill:#651f1d;}.cls-10{fill:#6d1f1c;}.cls-11{fill:#6e1a19;}.cls-12{fill:#610e10;}.cls-13{fill:#7c2321;}.cls-14{fill:#541d1b;}.cls-15{fill:#6b211f;}.cls-16{fill:#621f1c;}.cls-17{fill:#6d221f;}.cls-18{fill:#6f201c;}.cls-19{fill:#862321;}.cls-20{fill:#762120;}.cls-21{fill:url(#linear-gradient-3);}</style><linearGradient id="linear-gradient" x1="214.95" y1="15.98" x2="214.95" y2="-89.21" gradientTransform="matrix(0.98, 0, 0, -1.02, -105.73, 16.36)" gradientUnits="userSpaceOnUse"><stop offset="0" stop-color="#9b0000"/><stop offset="1" stop-color="#7d0000"/></linearGradient><linearGradient id="linear-gradient-2" x1="176.36" y1="-14.2" x2="176.36" y2="-63.87" gradientTransform="matrix(0.9, 0, 0, -1.11, -113.12, 42.75)" xlink:href="#linear-gradient"/><linearGradient id="linear-gradient-3" x1="244.37" y1="-112.1" x2="244.37" y2="-268.79" gradientTransform="matrix(1.4, 0, 0, -0.71, -64.17, -79.04)" xlink:href="#linear-gradient"/></defs><title>Asset 1</title><g id="Layer_2" data-name="Layer 2"><g id="svg2875"><g class="cls-1"><path id="path2723" class="cls-2" d="M52.88,49.6h.85V50h2.56v.43H58v.42H59.7v.43h1.7v.42h2.14v.42h1.7v.43h1.28V53H67.8v.43h2.13v.42h1.28v.42h1.28v.43H74.2v-.43h.42V53h.43v-.85h.43V51.3h.42v-.85h.43V49.6h.43v-.85h.42V47.48h.43v-.85H78v-.85h.43v-.84h.43v-.85h.42V42.82h.43V42h.43v-.85h.42v-.85H81v-.84h.43V38.15h.42v-.84h.43v-.85h.42v-.85h.43v-.85h.43V33.49H84v-.85h.43V31.8h.43V31h.42V30.1h.43V28.83h.43V28h.42v-.85H87v-.85h.43v-.84h.42V24.17h.43v-.85h.42v-.85h.43v-.85h.43v-.85H90v-.42h.43v.85h.43v1.27h.42v.85h.43v1.27h.43v.85h.42v1.27H93v.85h.43v1.27h.42v.85h.43V31h.42v.85h.43v1.27h.43v.84h.42v1.28h.43V36h.43v1.28h.42v.84h.43v1.28h.43v.84h.42v1.28h.43v.84h.43v.85h.42v1.27h.43v1.27h.42v.85h.43v.85h.43v1.27h.42v.85h.43v1.27h.43v.85h.42V53h.43v.85h.43v1.27h.42V56h.43v1.27h.42v.85h.43v1.27h.43v.85h.42v1.27H107v.85h.43v1.27h.42v.85h.43v1.27h.43v.85h.42v1.27h.43v.85H110V70h.42v.42h.43v.43h.42v.42h.86v.42H113v.43h.85v.42h.43v.43h.85v.42H116v.42h.42v.43h.85v.42h.86V75h.42v.43h.86v.42h.42v.43h.86v.42h.42v.42H122v.43h.42V78h.85v.43h.43v.42h.85v.42h.43v.43h.85v.42h.43v.43h.43V81h.85v.42h.43v.43h.85v.42h.42v.43h.43v.42h.85v.42h.43v.43h.43v.42h.85v.42h.43v.43H133v.42h.43v.43h.85v.42h.43v.42h.42v.43h.43v.42H136v.43h.85v.42h.43V89h.42v.43h.43v.42h.43v.43H139v.42h.43v.42h.85v.43h.43V92h.42v.42h.43v.43H142v.42h.42v.43h.43v.42h.43v.42h.42V95h.43v.42h.43v.43H145v.42h.43v.42h.42v.43h.43v.42h.43v.43h.42v.42h.43v.42H148v.43h.42v.42h.43V100h.43v.43h.42v.42h.43v.85h.43v.42H151v.43h.43V103h.42v.43h.43v.84h.43v.43h.42v.42h.43v.43h.43V106h.42v.85h.43v.42h.43v.43h.42v-.85h-.42v-1.27h-.43v-.85h-.43v-.85h-.42v-1.27h-.43v-.85h-.43v-1.27h-.42v-.85h-.43V98.35h-.43V97.5h-.42V96.23H151v-.85h-.42V94.11h-.43v-.85h-.43V92h-.42v-.85h-.43V89.87h-.43V89H148V87.75h-.43V86.9h-.43V85.63h-.42v-.85h-.43V83.51h-.43v-.85h-.42V81.39H145v-.85h-.42V79.27h-.43v-.85h-.43V77.15h-.42v-.84h-.43V75h-.43v-.84H142V72.91h-.43v-.84h-.43V70.79h-.42V70h-.43V68.67h-.43v-.84h-.42V66.55H139v-.84h-.42V64.44h-.43v-.85h-.43V62.32h-.42v-.85h-.43V60.2h-.43v-.85H136V58.08h-.43v-.85h-.43V56h-.42v-.85h-.43V53.84h-.43V53h-.42V51.72H133v-.85h-.42V49.6h-.43v-.85h-.43V47.48h-.42v-.85h-.43V45.36h-.43v-.85h-.42V43.24h-.43v-.85h-.43V41.12h-.42v-.85h-.43V39h-.42v-.85h-.43V36.88h-.43V36h-.42V34.76h-.43v-.85h-.43V32.64h-.42v-.85h-.43V30.52h-.43v-.85h-.42V28.4h-.43v-.85h-.43V26.28h-.42v-.85h-.43V24.16H122v-.84h-.43V22h-.43V21.2h-.42V19.92h-.43v-.84h-.43V17.8h-.42V17H119V15.69h-.43v-.85h-.42V13.57h-.43v-.85h-.43V11.45h-.42V10.6h-.43V9.33H116V8.48h-.43V7.21h-.43V6.36h-.42V5.09h-.43V4.24h-.43V3h-.42V2.12H113V.85h-.43V.42h-.42V0H75.48V.42h-.43v.85h-.43v.85H74.2V3h-.43v.85h-.43v.84h-.42v.85h-.43V6.78h-.43v.85h-.42v.85h-.43v.85h-.43v.84h-.42v1.28h-.43v.84h-.42v.85h-.43V14h-.43v.85h-.42v1.27H67.8V17h-.43v.84H67v.85h-.43v.85h-.43v1.27h-.42v.85h-.43v.85h-.42v.85h-.43v.84H64v1.27h-.42v.85h-.43v.85h-.43V28h-.42v.85h-.43v.84H61.4V31H61v.84h-.43v.85h-.43v.85H59.7v.85h-.43v1.27h-.42v.85h-.43v.84H58v.85h-.42V39h-.43v1.27h-.43v.85h-.42V42h-.43v.85h-.43v.84H55v1.27h-.43v.85h-.43v.85h-.42v.85H53.3v.85h-.42Z"/><path id="path2725" d="M49.46,58.93h1.28v.42h.86v.42h1.28v.43h.85v.42h.85v.43h1.28v.42h.85v.42H58v.43h.86v.42h.85v.43h.85v.42h1.28V64h.85v.43h.86v.42h.85v.42h.85v.43h1.28v.42h.85v.43h.86V67h.42v.42h.86v.43h.85v.42h.85v.43h.85v.42h.43v.42h.85V70h.86v.42h.85v.43h.85v.42h.43v.42h.85v.43H78v.42h.86v.42h.42v.43h.86v.42h.42v.43h.86v.42h.85V75h.42v.43h.86v.42H84v.43h.86v.42h.42v.42h.86v.43h.42V78h.86v.43h.42v.42h.85v.42h.43v.43H90v.42h.43v.42h.43V81h.85v.42h.43v.43h.42v.42h.86v.42h.42v.43h.85v.42h.43v.43h.43v.42h.85v.42h.43v.43h.42v.42h.43v.43h.85v.42h.43v.42h.42v.43h.43v.42h.85v.43h.43v.42h.43V89h.42v.43h.86v.42h.42v.42h.43v.43h.43v.42h.42v.43h.85V92h.43v.42h.43v.43h.42v.42H107v.43h.43v.42h.85v.42h.43V95h.42v.42h.43v.43H110v.42h.42v.42h.43v.43h.42v.42h.86v.43h.42v.42H113v.42h.43v.43h.42v.42h.43V100h.43v.43h.42v.42h.43v.43H116v.42h.42v.42h.43v.43h.42V103h.43v.43h.43v.42h.42v.42H119v.43h.43v.42h.42v.43h.43V106h.43v.42h.42v.43h.43v.42H122v.42h.43v.43h.43v.42h.42V109h.43v.42h.43v.42h.42v.43h.43v.42h.43v.43h.42v.42h.43v.42h.43v.85h.42v.43h.43v.42h31.55v-.42h-.42v-.85h-.43v-.85h-.43v-.85h-.42v-.42h-.43v-.85h-.43V109h-.42v-.43h-.43v-.42h-.42v-.43h-.43v-.84h-.43v-.43h-.42V106h-.43v-.85h-.43v-.42h-.42v-.43h-.43v-.42h-.43v-.42h-.42v-.85H151v-.43h-.42v-.42h-.43v-.42h-.43v-.43h-.42v-.42h-.43V100h-.43V99.2H148v-.43h-.43v-.42h-.43v-.43h-.42V97.5h-.43v-.42h-.43v-.43h-.42v-.42H145V95.8h-.42v-.42h-.43V95h-.43v-.43h-.42v-.42h-.43v-.42h-.43v-.43H142v-.42h-.86v-.43h-.42V92h-.43v-.42h-.43v-.43h-.42v-.42H139v-.43h-.42v-.42h-.43v-.42h-.85V89h-.43V88.6h-.43v-.43H136v-.42h-.43v-.42h-.43V86.9h-.85v-.42h-.43v-.42h-.42v-.43H133v-.42h-.85v-.43h-.43v-.42h-.42v-.42h-.86v-.43h-.42v-.42h-.43v-.43h-.43v-.42h-.85v-.42h-.42v-.43h-.86V81h-.42v-.43h-.43v-.42h-.85V79.7h-.43v-.43h-.85v-.42h-.43v-.42h-.85V78h-.43v-.42h-.85v-.43h-.43v-.42h-.85v-.42h-.43v-.43H119v-.42h-.43V75h-.85v-.42h-.85v-.42h-.43v-.43h-.85v-.42h-.85v-.43h-.43v-.42h-.85v-.42h-.86v-.43h-.42v-.42h-.86V70.8h-.85v-.43H110V70h-.86v-.43h-.85V69.1h-.43v-.42H107v-.43h-.85v-.42h-.86V67.4h-.85V67h-.85v-.42h-.85v-.43h-.86v-.42h-.85v-.43h-.85v-.42h-.85v-.42H98.5V64H97.22v-.42h-.85v-.43h-.85v-.42h-.86v-.42H93.39v-.43h-.86v-.42h-.85v-.42H90.4v-.43h-.85V60.2H88.27v-.43h-.85v-.42H86.14v-.42h-.86V58.5H84v-.42H82.72v-.43H81.45v-.42h-.86v-.42H79.31v-.43H78V56H76.76v-.43H75.48v-.42H73.34v-.42h-1.7v-.43H70.36v-.42H68.65v-.43H67.8V53H66.52v-.42H64v-.43H62.68v-.42H61.4v-.43H59.7v-.42H57.57v-.42H55V50H53.73V49.6H52.45v-.42H50.32v-.43H48.18v-.42H45.63V47.9H43.07v-.42H40.51v-.42h-3v-.43h-3v-.42H31.13v-.43H27.29v-.42H23v-.42H17.91v-.43H10.66v-.42H0v3H3.84v.42H7.68v.42h3v.43h2.56v.42h2.13v.43h2.13v.42h2.13V50h1.71v.43h2.13v.42h1.71v.43h1.7v.42h1.28v.42h1.71v.43h1.28V53h1.7v.43h1.28v.42h1.28v.42h1.28v.43H38v.42h1.28v.42h1.28V56h1.28v.42h1.28v.43h1.28v.42h1.28v.42h.85v.43h1.28v.42h1.7Z"/><path id="path2735" class="cls-3" d="M68.23,67H67.8v-.42H67v-.43h-.86v-.42h-.85v-.43h-.85v-.42H63.11v-.42h-.85V64H61.4v-.42h-.85v-.42H59.7v-.43H58.42v-.42h-.85v-.43h-.86v-.42H55.43v-.42h-.85v-.43H53.3V60.2h-.85v-.43H51.17v-.42H49.89v-.42H49V58.5h-.85v1.27h-.43v.85h-.43v.85h-.42v.85h-.43v.85h-.43v1.27h-.42v.85H45.2v.84h-.43V67h-.42v.85h-.43V69.1h-.43V70h-.42v.85h-.43v.84h-.42v.85h-.43v1.27h-.43v.85h-.42v.85h-.43v.85h-.43v.84h-.42v1.28h-.43v.84H38.8v.85h-.42V81H38v.85h-.43v.85H37.1v1.27h-.43v.85h-.42v.84h-.43v.85h-.43v.85H35V88.6h-.43v.85h-.43v.85h-.42v.84h-.43V92h-.43v1.27h-.42v.85H32V95h-.43v.85h-.42v.85H30.7v1.27h-.42v.84h-.43v.85h-.43v.85H29v.85h-.43v1.27h-.43v.85h-.42v.85h-.43v.84h-.43V106h-.42v.85H26v1.27h-.43V109h-.42v.85h-.43v.84h-.42v.85h-.43v1.27h-.43v.85H46.91v-.42h.42v-.43h.43v-.84h.42v-1.28h.43v-.84H49V109h.42v-.85h.43v-.85h.43V106h.42v-.85h.43v-.84h.43v-.85H52v-.85h.43v-.85h.43v-1.27h.42v-.85h.43v-.85h.42v-.84h.43v-.85H55V95.81h.42V95h.43v-.85h.43v-.85h.42v-.84h.43V91.14h.43V90.3H58v-.85h.43V88.6h.43v-.85h.42V86.48h.43v-.85h.42v-.85h.43v-.84H61v-.85h.42V81.82h.43V81h.43v-.85h.42v-.85h.43v-.84h.43V77.15H64v-.84h.43v-.85h.43v-.85h.42v-.85h.43v-.85h.42V71.64h.43V70.8H67V70h.42V69.1h.43v-.85h.43Z"/><path id="path2737" class="cls-4" d="M56.29,50.45V50H55v.43Z"/><path id="path2739" class="cls-5" d="M65.24,52.57v-.43H64v.43Z"/><path id="path2741" class="cls-6" d="M69.93,53.84v-.42H68.65v.42Z"/><path id="path2743" class="cls-7" d="M72.49,54.69v-.43h-.85v.43Z"/><path id="path2745" class="cls-8" d="M50.74,59.35v-.42h-.85v.42Z"/><path id="path2747" class="cls-9" d="M63.54,52.14v-.42h-.86v.42Z"/><path id="path2749" class="cls-10" d="M71.21,54.26v-.42h-.85v.42Z"/><path id="path2751" class="cls-11" d="M74.2,55.11v-.42h-.86v.42Z"/><path id="path2763" class="cls-9" d="M53.73,60.62V60.2H53.3v.42Z"/><path id="path2779" class="cls-8" d="M62.68,64.44V64h-.42v.43Z"/><path id="path2791" class="cls-12" d="M68.65,67.4V67h-.42v.42Z"/><path id="path2793" class="cls-13" d="M66.52,66.13v-.42h-.43v.42Z"/><path id="path2795" class="cls-14" d="M63.54,64.86v-.42h-.43v.42Z"/><path id="path2811" class="cls-6" d="M52.88,49.6v-.42h-.43v.42Z"/><path id="path2815" class="cls-15" d="M58,50.87v-.42h-.42v.42Z"/><path id="path2821" class="cls-15" d="M49.46,58.93V58.5H49v.43Z"/><path id="path2825" class="cls-16" d="M51.6,59.77v-.42h-.43v.42Z"/><path id="path2829" class="cls-17" d="M55.86,61.47v-.42h-.43v.42Z"/><path id="path2831" class="cls-7" d="M58,62.32v-.43h-.42v.43Z"/><path id="path2833" class="cls-15" d="M58.85,62.74v-.42h-.43v.42Z"/><path id="path2841" class="cls-10" d="M68.23,67v-.42H67.8V67Z"/><path id="path2843" class="cls-18" d="M67.37,66.56v-.43H67v.43Z"/><path id="path2851" class="cls-19" d="M52.88,60.2v-.43h-.43v.43Z"/><path id="path2857" class="cls-20" d="M61.83,64v-.42H61.4V64Z"/></g><path id="path2871" class="cls-21" d="M168.56,92.17v19c9.37,0,18.74-.15,28.11-.15,8.72.15,17.44.3,26.16.3,3.55,0,6.79,0,10.18-.15,4.52-.15,8.88-.46,13.24-.92,6.62-1.22,9-2,12.28-3.67,13.56-6.74,14.53-20.62,14.53-25a26,26,0,0,0-2.58-12,21.83,21.83,0,0,0-12-10.69A82.58,82.58,0,0,0,247.38,56c9.21-2.45,17.45-5.21,21.48-14.06A27.18,27.18,0,0,0,271,30.73c0-7.48-2.1-14.19-8.07-19.25-5.66-5.05-12.28-6.27-19.71-7.5-3.39-.15-6.78-.46-10.17-.46-8.24-.31-16.64-.15-25-.15H168.72V22h11.15V92.17Zm42.64.46V65.23h12.6c3.23,0,10.18-.62,14.7,6.22a12.37,12.37,0,0,1,2.42,7.48,14.22,14.22,0,0,1-2.75,7.91c-4.84,6.71-11.95,6-20.18,5.79Zm0-71.5c10.82,0,16.64-.15,21.16,1.66a10.37,10.37,0,0,1,6.3,5.94,12.6,12.6,0,0,1,.81,4.57A15.65,15.65,0,0,1,236.56,42c-3.39,4.41-7.91,5-14.05,5H211.2Zm79.63,53v37.05H317v-10a40.9,40.9,0,0,0,8.08,7.35c5.65,3.52,14.7,4.13,22,4.13,18.25,0,28.91-6.28,33.76-11.94,6.94-8,7.43-18.53,7.43-21.74,0-11.49-5.49-18.22-9.21-21.29a34.5,34.5,0,0,0-6.78-4.59c-12.11-5.66-11.79-4.9-24.71-9-5.17-1.69-10.34-3.53-15.35-5.36-3.23-1.23-6.13-2.6-7.59-5.36a12.64,12.64,0,0,1-.8-3.52c0-4.9,4.36-10.26,15.82-10.42,8.73,0,12.6,2.61,15.19,5.06,3.55,3.67,3.87,7.35,4.36,12.55h26.49V3.21H359.79V12.1a41.3,41.3,0,0,0-5.65-5.67C346.39.77,334.27.92,332,.92c-22,0-32.46,9-37.14,17.15a31,31,0,0,0-4,15.46c0,3.22.64,13.94,9,20.67a61.83,61.83,0,0,0,8.24,5.36c11.14,4.9,14.37,6.43,34.08,12.56,6.62,2.29,10.17,4,11.79,6.89a8.47,8.47,0,0,1,1,3.67,8.91,8.91,0,0,1-3.39,7.2c-4.53,4-11,4-12.76,4-8.73,0-13.09-3.06-15.35-5.67-3.87-4.13-4.2-8.72-4.52-14.08Z"/></g></g></svg>